<svg width="91" height="24" fill="none" xmlns="http://www.w3.org/2000/svg"><path d="M21.429 12h-6v1.714h4.114c-.6 2.572-2.486 4.715-4.971 5.572L4.713 9.429c1.029-3 3.943-5.143 7.286-5.143 2.572 0 4.886 1.285 6.343 3.257l1.286-1.114C17.914 4.114 15.17 2.57 12 2.57c-4.457 0-8.229 3.172-9.171 7.372l11.314 11.314c4.114-1.028 7.286-4.8 7.286-9.257zM2.571 12.086c0 2.4.943 4.714 2.743 6.514 1.8 1.8 4.2 2.743 6.515 2.743L2.57 12.086z" fill="#fff"/><path fill-rule="evenodd" clip-rule="evenodd" d="M12 0C5.4 0 0 5.4 0 12s5.4 12 12 12 12-5.4 12-12S18.6 0 12 0zM5.314 18.686c-1.8-1.8-2.743-4.2-2.743-6.515l9.343 9.258c-2.4-.086-4.8-.943-6.6-2.743zM2.83 9.943L14.057 21.17c4.2-.942 7.372-4.714 7.372-9.171h-6v1.714h4.114c-.6 2.572-2.486 4.715-4.972 5.572L4.714 9.429c1.115-3 3.943-5.143 7.286-5.143 2.571 0 4.886 1.285 6.343 3.257l1.286-1.114C17.914 4.114 15.17 2.57 12 2.57c-4.457 0-8.229 3.172-9.171 7.372z" fill="#639"/><path d="M40.818 11.14h2.813c-.358-2.588-2.64-4.41-5.6-4.41-3.458 0-6.123 2.493-6.123 6.737 0 4.142 2.493 6.712 6.18 6.712 3.306 0 5.664-2.09 5.664-5.535v-1.65h-5.478v2.084h2.813c-.039 1.624-1.145 2.653-2.985 2.653-2.078 0-3.388-1.553-3.388-4.29 0-2.722 1.361-4.263 3.362-4.263 1.425 0 2.39.735 2.742 1.963zm7.262 9.045c1.45 0 2.39-.632 2.87-1.546h.076V20h2.583v-6.622c0-2.34-1.982-3.324-4.168-3.324-2.352 0-3.899 1.125-4.276 2.915l2.518.204c.186-.652.767-1.131 1.745-1.131.927 0 1.458.466 1.458 1.272v.038c0 .633-.671.716-2.378.882-1.943.18-3.688.831-3.688 3.024 0 1.943 1.387 2.927 3.26 2.927zm.78-1.879c-.838 0-1.439-.39-1.439-1.138 0-.767.633-1.144 1.592-1.278.594-.083 1.566-.224 1.892-.441v1.042c0 1.029-.85 1.815-2.045 1.815zm11.584-8.124h-1.848V7.83h-2.723v2.352h-1.342v2.045h1.342v5.114c-.012 1.924 1.298 2.876 3.273 2.793a5.298 5.298 0 001.477-.255l-.429-2.027c-.134.026-.421.09-.677.09-.544 0-.92-.205-.92-.959v-4.756h1.847v-2.045zm9.302 2.8c-.243-1.81-1.7-2.928-4.18-2.928-2.513 0-4.168 1.163-4.162 3.055-.006 1.47.92 2.423 2.838 2.806l1.7.34c.857.172 1.247.485 1.26.977-.013.582-.646.997-1.598.997-.972 0-1.617-.415-1.783-1.214l-2.679.14c.256 1.88 1.854 3.037 4.455 3.037 2.544 0 4.366-1.298 4.373-3.235-.007-1.419-.934-2.269-2.838-2.659l-1.777-.358c-.915-.198-1.253-.511-1.247-.984-.006-.588.658-.972 1.502-.972.946 0 1.509.518 1.643 1.15l2.493-.152zM71.236 20h2.684v-1.572h.121c.378.818 1.202 1.732 2.788 1.732 2.237 0 3.982-1.77 3.982-5.056 0-3.375-1.822-5.05-3.976-5.05-1.643 0-2.43.978-2.793 1.777h-.084V6.909h-2.723V20zm2.665-4.91c0-1.75.741-2.87 2.065-2.87 1.348 0 2.064 1.17 2.064 2.87 0 1.714-.728 2.903-2.064 2.903-1.31 0-2.065-1.15-2.065-2.902zm9.574 8.573c2.026 0 3.106-1.03 3.656-2.602l3.816-10.866-2.883-.013-2.052 7.21h-.102l-2.032-7.21h-2.864l3.522 10.1-.16.415c-.383.888-1.042.952-2 .652l-.614 2.039c.39.16 1.022.275 1.713.275z" fill="#36313D"/></svg>