<svg width="16" height="16" fill="none" xmlns="http://www.w3.org/2000/svg"><path d="M14.286 8h-4v1.143h2.743c-.4 1.714-1.658 3.143-3.315 3.714L3.143 6.286c.686-2 2.628-3.429 4.857-3.429 1.714 0 3.257.857 4.229 2.172l.857-.743A6.301 6.301 0 008 1.714c-2.971 0-5.486 2.115-6.114 4.915l7.543 7.542c2.742-.685 4.857-3.2 4.857-6.171zM1.714 8.057c0 1.6.629 3.143 1.829 4.343 1.2 1.2 2.8 1.829 4.343 1.829L1.714 8.057z" fill="#fff"/><path fill-rule="evenodd" clip-rule="evenodd" d="M8 0C3.6 0 0 3.6 0 8s3.6 8 8 8 8-3.6 8-8-3.6-8-8-8zM3.543 12.457c-1.2-1.2-1.829-2.8-1.829-4.343l6.229 6.172c-1.6-.057-3.2-.629-4.4-1.829zM1.886 6.63l7.485 7.485c2.8-.628 4.915-3.143 4.915-6.114h-4v1.143h2.743c-.4 1.714-1.658 3.143-3.315 3.714L3.143 6.286c.743-2 2.628-3.429 4.857-3.429 1.714 0 3.257.857 4.229 2.172l.857-.743A6.301 6.301 0 008 1.714c-2.971 0-5.486 2.115-6.114 4.915z" fill="#639"/></svg>