<svg width="16" height="16" viewBox="0 0 16 16" fill="none" xmlns="http://www.w3.org/2000/svg">
<path fill-rule="evenodd" clip-rule="evenodd" d="M8 0C3.6 0 0 3.6 0 8C0 12.4 3.6 16 8 16C12.4 16 16 12.4 16 8C16 3.6 12.4 0 8 0ZM3.54287 12.4571C2.34287 11.2571 1.71429 9.65714 1.71429 8.11428L7.94286 14.2857C6.34286 14.2286 4.74286 13.6571 3.54287 12.4571ZM1.88572 6.62857L9.37143 14.1143C12.1714 13.4857 14.2857 10.9714 14.2857 8H10.2857V9.14286H13.0286C12.6286 10.8571 11.3714 12.2857 9.71429 12.8571L3.14286 6.28572C3.88572 4.28572 5.77143 2.85714 8 2.85714C9.71429 2.85714 11.2571 3.71429 12.2286 5.02857L13.0857 4.28572C11.9429 2.74286 10.1143 1.71429 8 1.71429C5.02857 1.71429 2.51429 3.82857 1.88572 6.62857Z" fill="black"/>
</svg>
